Coordinates
version=1
nRows=13
nColumns=22
inDegrees=yes

Units are S.I. units (second, meters, Newtons, ...)
If the header above contains a line with 'inDegrees', this indicates whether rotational values are in degrees (yes) or radians (no).

endheader
time	pelvis_tilt	pelvis_list	pelvis_rotation	pelvis_tx	pelvis_ty	pelvis_tz	hip_flexion_r	hip_adduction_r	hip_rotation_r	knee_angle_r	ankle_angle_r	subtalar_angle_r	hip_flexion_l	hip_adduction_l	hip_rotation_l	knee_angle_l	ankle_angle_l	subtalar_angle_l	lumbar_extension	lumbar_bending	lumbar_rotation
      4.39000000	      4.42041299	      5.12680550	     95.44445846	      0.42261375	      0.90686446	     -0.33973634	     17.40267166	      1.95240300	     -8.43542832	    -23.58295004	     -3.43645892	      5.07705554	     -8.77802927	     -5.84119538	      5.12422230	    -47.33708453	     -6.94561450	      4.89192510	     -6.18255466	     -0.99728536	    -12.78444248
      4.40000000	      4.47001223	      5.00310695	     95.65172581	      0.42429604	      0.90814627	     -0.34723914	     16.89989560	      2.16955811	     -8.62604459	    -23.36105380	     -2.95946129	      4.63087235	     -7.09383500	     -6.06636335	      4.95827917	    -49.96515844	     -8.43655120	      4.61839856	     -6.09344800	     -0.86712880	    -12.31231271
      4.41000000	      4.50775052	      4.92951989	     95.86043621	      0.42597223	      0.90945538	     -0.35442594	     16.33146498	      2.38689678	     -8.81095158	    -23.07126268	     -2.58498805	      4.22247444	     -5.44360098	     -6.31118111	      4.73419382	    -52.46222616	     -9.56971135	      4.44627747	     -6.09502887	     -0.75635371	    -11.84080752
      4.42000000	      4.52748798	      4.87712529	     96.05280308	      0.42762588	      0.91077144	     -0.36137204	     15.73826254	      2.59346613	     -8.97563761	    -22.74340897	     -2.24625545	      3.82972464	     -3.84022283	     -6.53913033	      4.49048305	    -54.75502915	    -10.28288504	      4.37686394	     -6.13999141	     -0.67336533	    -11.29612346
      4.43000000	      4.49767157	      4.84514487	     96.21090186	      0.42925645	      0.91209561	     -0.36808638	     15.14546915	      2.75694981	     -9.07464438	    -22.43504114	     -1.87417442	      3.43808749	     -2.30876420	     -6.71681672	      4.19053559	    -56.80379842	    -10.52539739	      4.40219199	     -6.22994323	     -0.64924992	    -10.70953044
      4.44000000	      4.42176001	      4.84507356	     96.32429917	      0.43085330	      0.91347283	     -0.37459400	     14.54722589	      2.88048880	     -9.10256758	    -22.15809245	     -1.53686301	      3.09369787	     -0.88206926	     -6.83946376	      3.84073148	    -58.57514061	    -10.34270730	      4.52340240	     -6.37308519	     -0.67796987	    -10.07561496
      4.45000000	      4.28135945	      4.83624009	     96.39386696	      0.43237903	      0.91487414	     -0.38093354	     13.98356179	      2.93343139	     -9.07355820	    -21.91431415	     -1.22975127	      2.74752177	      0.46899435	     -6.87336912	      3.45057220	    -60.05034885	     -9.83385093	      4.68474218	     -6.51519464	     -0.78311308	     -9.37452894
      4.46000000	      4.08751905	      4.84266495	     96.40599598	      0.43383981	      0.91631156	     -0.38708972	     13.44140128	      2.93334832	     -8.95523728	    -21.72737977	     -0.93921037	      2.46760452	      1.71577117	     -6.84285081	      2.99084617	    -61.23275674	     -9.05696755	      4.84210747	     -6.68589775	     -0.94495404	     -8.63432301
      4.47000000	      3.83581066	      4.84524303	     96.37013566	      0.43521285	      0.91775304	     -0.39305089	     12.93891111	      2.86721269	     -8.76628516	    -21.59407027	     -0.65548071	      2.23122307	      2.88021525	     -6.73905774	      2.48235797	    -62.13117950	     -8.08162147	      4.96219356	     -6.86463774	     -1.17073059	     -7.86320123
      4.48000000	      3.53807256	      4.82425299	     96.29389290	      0.43647884	      0.91916954	     -0.39885025	     12.47916489	      2.74123881	     -8.54283171	    -21.47983234	     -0.38165157	      2.01415957	      3.98004898	     -6.57746633	      1.93155425	    -62.74664362	     -6.96079952	      5.04165432	     -7.01712953	     -1.45011633	     -7.07238679
      4.49000000	      3.21014784	      4.78215673	     96.19021787	      0.43765328	      0.92055011	     -0.40448946	     12.05053766	      2.57212922	     -8.30057233	    -21.36451209	     -0.12182314	      1.81267049	      5.01842057	     -6.39008468	      1.34380217	    -63.09296879	     -5.72650801	      5.08683923	     -7.14566004	     -1.76721286	     -6.29381563
      4.50000000	      2.87555496	      4.73076319	     96.07862578	      0.43873693	      0.92188660	     -0.40996457	     11.63474321	      2.38498922	     -8.05710904	    -21.23437933	      0.11894186	      1.62568994	      5.99053664	     -6.20789000	      0.74639392	    -63.18579235	     -4.39107803	      5.10487031	     -7.26084157	     -2.09645346	     -5.55362476
      4.51000000	      2.55669965	      4.67828103	     95.97645880	      0.43972568	      0.92317076	     -0.41525542	     11.21387845	      2.20443645	     -7.81965974	    -21.06599451	      0.33267899	      1.44044671	      6.89784813	     -6.05090752	      0.18042281	    -63.04378109	     -2.97868728	      5.08844596	     -7.37477883	     -2.41078222	     -4.85407180
